# xmcd
#
# Track frame offsets:
#	150
#	14112
#	26020
#	39910
#	52852
#	76982
#	116357
#	129525
#	153230
#	173400
#	189777
#	208362
#	220590
#	234830
#	258092
#	272702
#	285020
#	306577
#	324755
#
# Disc length: 4630 seconds
#
# Revision: 0
# Processed by: cddbd v1.4PL0 Copyright (c) Steve Scherf et al.
# Submitted via: dBpowerAMP V4.0
#
DISCID=ec121413
DTITLE=Various Artist - The Ultimate Blues Collection
DYEAR=1900
DGENRE=Blues
TTITLE0=The Paul Butterfield Blues Band/Born In Chicago
TTITLE1=John Lee Hooker/Boom Boom
TTITLE2=Howlin' Wolf/Smokestack Lightnin'
TTITLE3=Johnny Winter/Messin' With The Kid
TTITLE4=Stevie Ray Vaughan/Texas Flood
TTITLE5=The Allman Brothers Band/Stormy Monday
TTITLE6=Jimmy Reed/Big Boss Man
TTITLE7=Muddy Waters/Mannish Boy
TTITLE8=Buddy Guy/Damn Right I Got The Blues
TTITLE9=Jeff Beck and Rod Stewart/Rock My Plimsoul
TTITLE10=Savoy Brown/Train To Nowhere
TTITLE11=Fabulous Thunderbirds/Wrap It Up
TTITLE12=Alexis Korner and His Blues Incorporated/I Go My Mojo Working
TTITLE13=Howlin/Wolf and Eric Clapton/The Little Red Rooster
TTITLE14=James Brown/It's A Man's Man's World
TTITLE15=Little Walter/Juke
TTITLE16=Taj Mahal/Leaving Trunk
TTITLE17=John Hammond/You Don't Love Me
TTITLE18=BB King/The Thrill Is Gone
EXTD=
EXTT0=
EXTT1=
EXTT2=
EXTT3=
EXTT4=
EXTT5=
EXTT6=
EXTT7=
EXTT8=
EXTT9=
EXTT10=
EXTT11=
EXTT12=
EXTT13=
EXTT14=
EXTT15=
EXTT16=
EXTT17=
EXTT18=
PLAYORDER=
